<?xml version="1.0" encoding="UTF-8" standalone="no"?>
<svg
   width="671.17969pt"
   height="147.76953pt"
   viewBox="0 0 671.17969 147.76953"
   version="1.2"
   id="svg887"
   sodipodi:docname="HIJ_de_logo.svg"
   inkscape:version="1.1 (c68e22c387, 2021-05-23)"
   inkscape:export-filename="C:\Users\felip\Nextcloud\Documents\Website\felipecsalgado.github.io\images\HIJ_de_logo.png"
   inkscape:export-xdpi="450"
   inkscape:export-ydpi="450"
   xmlns:inkscape="http://www.inkscape.org/namespaces/inkscape"
   xmlns:sodipodi="http://sodipodi.sourceforge.net/DTD/sodipodi-0.dtd"
   xmlns="http://www.w3.org/2000/svg"
   xmlns:svg="http://www.w3.org/2000/svg">
  <defs
     id="defs891" />
  <sodipodi:namedview
     id="namedview889"
     pagecolor="#ffffff"
     bordercolor="#666666"
     borderopacity="1.0"
     inkscape:pageshadow="2"
     inkscape:pageopacity="0.0"
     inkscape:pagecheckerboard="0"
     inkscape:document-units="pt"
     showgrid="false"
     fit-margin-top="0"
     fit-margin-left="0"
     fit-margin-right="0"
     fit-margin-bottom="0"
     inkscape:zoom="0.73360051"
     inkscape:cx="582.74223"
     inkscape:cy="188.11328"
     inkscape:window-width="1920"
     inkscape:window-height="986"
     inkscape:window-x="-11"
     inkscape:window-y="-11"
     inkscape:window-maximized="1"
     inkscape:current-layer="svg887" />
  <rect
     style="fill:#ffffff;fill-opacity:1;fill-rule:evenodd;stroke-width:3.0369;stroke-linejoin:bevel;paint-order:stroke fill markers;stroke:none"
     id="rect874"
     width="740.89154"
     height="188.69576"
     x="-33.003414"
     y="-26.176559" />
  <g
     id="surface30666"
     transform="translate(-131.56155,-128.17048)">
    <path
       style="fill:#00599e;fill-opacity:1;fill-rule:nonzero;stroke:none"
       d="m 165.14062,234.73437 v -21.8125 h 5.70313 v 50.69141 h -5.70313 v -24.16797 h -23.78515 v 24.16797 h -5.69922 v -50.69141 h 5.69922 v 21.8125 z m 0,0"
       id="path824" />
    <path
       style="fill:#00599e;fill-opacity:1;fill-rule:nonzero;stroke:none"
       d="m 185.43359,246.51562 c 0.22657,8.73829 3.875,13.44922 10.41016,13.44922 3.95312,0 6.30859,-1.51953 8.35937,-5.47265 l 4.94141,0.60937 c -2.20312,6.23438 -6.76172,9.42578 -13.375,9.42578 -9.65234,0 -15.80859,-7.22265 -15.80859,-18.54687 0,-11.70313 6.07812,-19.37891 15.5039,-19.37891 8.89063,0 14.59375,7.21875 14.59375,18.39063 0,0.23047 0,0.83593 -0.0781,1.51953 h -24.54688 z m 19.07422,-4.18359 c -0.60547,-7.29297 -3.875,-11.24609 -9.26953,-11.24609 -5.24609,0 -8.58984,3.875 -9.65234,11.24609 z m 0,0"
       id="path826" />
    <path
       style="fill:#00599e;fill-opacity:1;fill-rule:nonzero;stroke:none"
       d="m 223.88672,212.69531 v 50.91797 h -5.6211 v -50.91797 z m 0,0"
       id="path828" />
    <path
       style="fill:#00599e;fill-opacity:1;fill-rule:nonzero;stroke:none"
       d="m 238.70703,227.58984 c 0.45703,1.28907 0.68359,3.03907 0.68359,4.94141 2.28125,-4.03125 5.55079,-5.92969 10.48829,-5.92969 5.01562,0 8.13281,1.97656 9.95703,6.3086 2.42968,-4.25391 6.0039,-6.3086 11.09375,-6.3086 4.25781,0 7.60156,1.67188 9.27343,4.63672 1.21875,2.12891 1.36719,3.49609 1.36719,10.33594 v 22.03906 h -5.3164 v -22.03906 c 0,-4.71094 -0.15235,-5.92969 -1.06641,-7.44922 -1.14063,-1.75 -3.11719,-2.73438 -5.92578,-2.73438 -3.19531,0 -5.77735,1.44141 -7.22266,4.02735 -0.98437,1.59375 -1.36719,3.64844 -1.36719,6.91406 v 21.28125 h -5.32031 v -21.20312 c 0,-5.54688 -0.0742,-6.46094 -0.83594,-7.82813 -1.0625,-2.05078 -3.26953,-3.26953 -6.07812,-3.26953 -3.19531,0 -6.00391,1.51953 -7.375,4.10547 -0.98828,1.82422 -1.36719,3.95312 -1.36719,7.21875 v 20.97656 H 234.375 v -24.85156 c 0,-7.44922 -0.0742,-8.13281 -0.91016,-11.17188 z m 0,0"
       id="path830" />
    <path
       style="fill:#00599e;fill-opacity:1;fill-rule:nonzero;stroke:none"
       d="m 297,212.69531 v 19.14844 c 2.66016,-3.57031 5.92578,-5.24219 10.33594,-5.24219 4.33203,0 8.13281,1.89844 9.95703,4.9375 1.28906,2.20703 1.59375,4.25781 1.59375,11.40235 v 20.67187 h -5.32031 v -20.36719 c 0,-5.24609 -0.22657,-6.83984 -1.14063,-8.51172 -1.21484,-2.20703 -3.34375,-3.42187 -6.23047,-3.42187 -3.26953,0 -6.08203,1.67187 -7.67578,4.48437 -1.0625,1.89844 -1.51953,4.48438 -1.51953,7.98047 v 19.83594 h -5.32031 v -50.91797 z m 0,0"
       id="path832" />
    <path
       style="fill:#00599e;fill-opacity:1;fill-rule:nonzero;stroke:none"
       d="m 358.40625,245.60156 c 0,11.09766 -6.46094,18.92578 -15.73047,18.92578 -9.34766,0 -15.73437,-7.7539 -15.73437,-19.23047 0,-10.86718 6.53906,-18.69531 15.73437,-18.69531 9.26953,0 15.73047,7.75391 15.73047,19 z M 332.41406,245.375 c 0,8.81641 4.02735,14.58984 10.26172,14.58984 6.15625,0 10.25781,-5.77343 10.25781,-14.4375 0,-8.58984 -4.10156,-14.36718 -10.25781,-14.36718 -6.08203,0 -10.26172,5.77734 -10.26172,14.21484 z m 0,0"
       id="path834" />
    <path
       style="fill:#00599e;fill-opacity:1;fill-rule:nonzero;stroke:none"
       d="m 372.23828,212.69531 v 50.91797 h -5.625 v -50.91797 z m 0,0"
       id="path836" />
    <path
       style="fill:#00599e;fill-opacity:1;fill-rule:nonzero;stroke:none"
       d="m 398.53516,227.58984 v 4.33203 h -8.58985 l -0.3789,18.23829 v 3.72656 c 0,4.55859 0.83593,5.85156 4.02734,5.85156 1.59766,0 3.57031,-0.45703 5.16797,-1.29297 v 4.71094 c -2.4336,0.91406 -4.17969,1.21875 -6.38281,1.21875 -3.57422,0 -6.23438,-1.21875 -7.44922,-3.42188 -0.6836,-1.21484 -0.91016,-2.50781 -0.91016,-5.08984 0,-0.68359 0,-1.90234 0.0742,-3.03906 l 0.0742,-2.8125 0.45703,-18.08985 h -5.39453 v -4.33203 h 5.54687 l 0.22657,-10.41406 h 5.16796 l -0.14843,10.41406 z m 0,0"
       id="path838" />
    <path
       style="fill:#00599e;fill-opacity:1;fill-rule:nonzero;stroke:none"
       d="m 428.85937,227.58984 v 3.94922 l -20.67187,27.66797 h 20.28906 v 4.40625 H 401.875 v -4.17969 l 20.44531,-27.4375 h -18.84765 v -4.40625 z m 0,0"
       id="path840" />
    <path
       style="fill:#00599e;fill-opacity:1;fill-rule:nonzero;stroke:none"
       d="m 450.51562,242.41016 v 4.17968 h -20.82421 v -4.17968 z m 0,0"
       id="path842" />
    <path
       style="fill:#00599e;fill-opacity:1;fill-rule:nonzero;stroke:none"
       d="m 456.21484,263.61328 v -50.69141 h 5.85157 v 50.69141 z m 0,0"
       id="path844" />
    <path
       style="fill:#00599e;fill-opacity:1;fill-rule:nonzero;stroke:none"
       d="m 477.41797,227.58984 c 0.53125,1.51953 0.76172,2.96485 0.76172,5.24219 2.42968,-4.17969 6.07812,-6.23047 10.86718,-6.23047 4.94141,0 8.73829,2.20313 10.33594,5.85156 0.98828,2.35547 1.14063,3.34375 1.14063,10.48829 v 20.67187 h -5.32032 v -20.36719 c 0,-5.47265 -0.15234,-6.76562 -0.98828,-8.51172 -1.14062,-2.20703 -3.26953,-3.42187 -6.23047,-3.42187 -3.26953,0 -6.23437,1.67187 -7.90625,4.48437 -1.0625,1.89844 -1.59375,4.25782 -1.59375,7.67579 v 20.14062 h -5.32031 v -23.78906 c 0,-8.58594 0,-8.89063 -0.83594,-12.23438 z m 0,0"
       id="path846" />
    <path
       style="fill:#00599e;fill-opacity:1;fill-rule:nonzero;stroke:none"
       d="m 529.48047,237.46875 c -0.53516,-4.40625 -2.89063,-6.46094 -7.375,-6.46094 -4.10156,0 -6.91406,2.20703 -6.91406,5.39844 0,2.96484 1.51953,4.10547 8.35937,6.08203 5.92578,1.74609 8.13281,2.80859 9.65234,4.55859 1.36719,1.59375 2.05079,3.72266 2.05079,6.23047 0,6.91797 -5.01563,11.25 -13.07422,11.25 -8.73828,0 -13.60157,-4.33203 -13.60157,-12.08593 h 5.16797 c 0.45313,5.09375 3.19141,7.60156 8.35938,7.60156 4.71094,0 7.67578,-2.50781 7.67578,-6.3086 0,-1.97656 -0.75781,-3.26953 -2.43359,-4.2539 -1.21485,-0.76172 -1.67188,-0.91406 -7.90235,-2.89063 -6.99219,-2.125 -9.65234,-4.78515 -9.65234,-9.80078 0,-6.08203 5.01562,-10.1875 12.38672,-10.1875 7.67968,0 12.08593,3.87891 12.46484,10.8711 h -5.16406 z m 0,0"
       id="path848" />
    <path
       style="fill:#00599e;fill-opacity:1;fill-rule:nonzero;stroke:none"
       d="m 558.96875,227.58984 v 4.33203 h -8.58984 L 550,250.16016 v 3.72656 c 0,4.55859 0.83594,5.85156 4.02734,5.85156 1.59766,0 3.57032,-0.45703 5.16797,-1.29297 v 4.71094 c -2.43359,0.91406 -4.17969,1.21875 -6.38281,1.21875 -3.57422,0 -6.23438,-1.21875 -7.44922,-3.42188 -0.68359,-1.21484 -0.91016,-2.50781 -0.91016,-5.08984 0,-0.68359 0,-1.90234 0.0742,-3.03906 l 0.0742,-2.8125 0.45703,-18.08985 h -5.39453 v -4.33203 h 5.54688 l 0.22656,-10.41406 h 5.16797 l -0.14844,10.41406 z m 0,0"
       id="path850" />
    <path
       style="fill:#00599e;fill-opacity:1;fill-rule:nonzero;stroke:none"
       d="m 572.875,216.19141 c 0,2.20312 -1.59766,3.79687 -3.875,3.79687 -2.20703,0 -3.87891,-1.59375 -3.87891,-3.79687 0,-2.28125 1.67188,-3.95313 3.95313,-3.95313 2.20312,0 3.80078,1.67188 3.80078,3.95313 z m -1.06641,11.39843 v 36.02344 h -5.62109 v -36.02344 z m 0,0"
       id="path852" />
    <path
       style="fill:#00599e;fill-opacity:1;fill-rule:nonzero;stroke:none"
       d="m 598.10547,227.58984 v 4.33203 h -8.58594 l -0.38281,18.23829 v 3.72656 c 0,4.55859 0.83594,5.85156 4.02734,5.85156 1.59766,0 3.57422,-0.45703 5.16797,-1.29297 v 4.71094 c -2.42969,0.91406 -4.17969,1.21875 -6.38281,1.21875 -3.57031,0 -6.23047,-1.21875 -7.44922,-3.42188 -0.68359,-1.21484 -0.91016,-2.50781 -0.91016,-5.08984 0,-0.68359 0,-1.90234 0.0742,-3.03906 l 0.0781,-2.8125 0.45703,-18.08985 h -5.39844 v -4.33203 h 5.54688 l 0.23046,-10.41406 h 5.16797 l -0.15234,10.41406 z m 0,0"
       id="path854" />
    <path
       style="fill:#00599e;fill-opacity:1;fill-rule:nonzero;stroke:none"
       d="m 610.49219,227.58984 v 22.03907 c 0,4.02734 0.3789,6.0039 1.36718,7.375 1.21875,1.74609 3.42188,2.73437 6.00391,2.73437 3.19531,0 5.77734,-1.51953 7.375,-4.17969 1.0625,-1.82422 1.44141,-3.95312 1.44141,-7.52343 V 227.58984 H 632 v 25.07813 c 0,7.82812 0,8.28515 0.83594,10.94531 h -5.24219 c -0.53125,-1.59375 -0.68359,-2.88672 -0.76172,-4.78516 -2.12891,4.02735 -4.9375,5.69922 -9.57422,5.69922 -4.71484,0 -8.74219,-2.1289 -10.64062,-5.77734 -1.14063,-1.97656 -1.44532,-4.17969 -1.44532,-9.12109 v -22.03907 z m 0,0"
       id="path856" />
    <path
       style="fill:#00599e;fill-opacity:1;fill-rule:nonzero;stroke:none"
       d="m 658.21875,227.58984 v 4.33203 h -8.58594 l -0.3789,18.23829 v 3.72656 c 0,4.55859 0.83593,5.85156 4.02734,5.85156 1.59375,0 3.57031,-0.45703 5.16797,-1.29297 v 4.71094 c -2.4336,0.91406 -4.17969,1.21875 -6.38281,1.21875 -3.57422,0 -6.23438,-1.21875 -7.44922,-3.42188 -0.6836,-1.21484 -0.91407,-2.50781 -0.91407,-5.08984 0,-0.68359 0,-1.90234 0.0781,-3.03906 l 0.0742,-2.8125 0.45703,-18.08985 h -5.39844 v -4.33203 h 5.55078 l 0.22657,-10.41406 h 5.16796 l -0.15234,10.41406 z m 0,0"
       id="path858" />
    <path
       style="fill:#00599e;fill-opacity:1;fill-rule:nonzero;stroke:none"
       d="m 693.63672,212.92187 v 40.4336 c 0,7.0664 -0.15235,8.58594 -1.21485,10.78906 -1.90234,3.95313 -6.38671,6.08203 -12.61718,6.08203 h -1.82422 v -4.9414 h 1.28906 c 3.95313,-0.0742 6.69141,-1.29297 7.75391,-3.57032 0.68359,-1.44531 0.75781,-2.58593 0.75781,-8.35937 v -40.4336 z m 0,0"
       id="path860" />
    <path
       style="fill:#00599e;fill-opacity:1;fill-rule:nonzero;stroke:none"
       d="m 708.15234,246.51562 c 0.22657,8.73829 3.875,13.44922 10.41016,13.44922 3.95312,0 6.30859,-1.51953 8.35937,-5.47265 l 4.94141,0.60937 c -2.20312,6.23438 -6.76172,9.42578 -13.375,9.42578 -9.65234,0 -15.80859,-7.22265 -15.80859,-18.54687 0,-11.70313 6.07812,-19.37891 15.5039,-19.37891 8.89063,0 14.58985,7.21875 14.58985,18.39063 0,0.23047 0,0.83593 -0.0742,1.51953 h -24.54688 z m 19.07422,-4.18359 c -0.60547,-7.29297 -3.875,-11.24609 -9.26953,-11.24609 -5.24609,0 -8.58984,3.875 -9.65234,11.24609 z m 0,0"
       id="path862" />
    <path
       style="fill:#00599e;fill-opacity:1;fill-rule:nonzero;stroke:none"
       d="m 745.16406,227.58984 c 0.53125,1.51953 0.75781,2.96485 0.75781,5.24219 2.4336,-4.17969 6.08204,-6.23047 10.86719,-6.23047 4.94141,0 8.74219,2.20313 10.33594,5.85156 0.98828,2.35547 1.14062,3.34375 1.14062,10.48829 v 20.67187 h -5.32031 v -20.36719 c 0,-5.47265 -0.14844,-6.76562 -0.98437,-8.51172 -1.14063,-2.20703 -3.26953,-3.42187 -6.23438,-3.42187 -3.26562,0 -6.23047,1.67187 -7.90234,4.48437 -1.06641,1.89844 -1.59766,4.25782 -1.59766,7.67579 v 20.14062 h -5.32031 v -23.78906 c 0,-8.58594 0,-8.89063 -0.83594,-12.23438 z m 0,0"
       id="path864" />
    <path
       style="fill:#00599e;fill-opacity:1;fill-rule:nonzero;stroke:none"
       d="m 777.76562,237.01562 c 0.76172,-6.76562 5.47266,-10.41406 13.45313,-10.41406 5.85156,0 10.18359,2.20313 11.55078,5.92969 0.68359,1.82422 0.83594,3.57031 0.83594,8.05469 v 13.52734 c 0,5.85156 0.15234,6.99219 0.98828,9.5 H 799.5 c -0.53125,-1.67187 -0.60547,-2.50781 -0.83594,-4.86328 -2.125,3.875 -5.62109,5.77734 -10.5625,5.77734 -7.0664,0 -11.6289,-4.10547 -11.6289,-10.41406 0,-5.01562 2.89062,-8.73828 8.35937,-10.79297 3.49609,-1.28906 6.83984,-2.05078 13.53125,-3.1914 v -1.51954 c 0,-5.39453 -2.05469,-7.44921 -7.375,-7.44921 -4.63281,0 -7.21875,1.82421 -7.98047,5.85156 h -5.24219 z m 20.59766,7.06641 c -12.16016,2.12891 -16.41797,4.71094 -16.41797,9.65234 0,3.72266 2.8125,6.3086 6.99219,6.3086 3.49609,0 6.53516,-1.67188 8.05469,-4.48438 0.91406,-1.75 1.37109,-4.17968 1.37109,-7.90234 z m 0,0"
       id="path866" />
    <path
       style="fill:#00599e;fill-opacity:1;fill-rule:nonzero;stroke:none"
       d="m 166.14062,147.23828 v -24.78125 h 11.75 v 61.22656 h -11.75 v -24.69531 h -20.98046 v 24.69531 h -11.7461 v -61.22656 h 11.7461 v 24.78125 z m 0,0"
       id="path868" />
    <path
       style="fill:#00599e;fill-opacity:1;fill-rule:nonzero;stroke:none"
       d="m 229.65625,122.45703 v 11.74219 h -26.86328 v 13.03906 h 23.3164 v 11.75 h -23.3164 v 12.95313 h 26.86328 v 11.74218 h -32.82031 c -0.51953,0 -1.03907,-0.17578 -1.38282,-0.60547 l -3.80078,-3.79687 c -0.42578,-0.34375 -0.60547,-0.86328 -0.60547,-1.38281 v -49.66016 c 0,-0.51562 0.17969,-1.03515 0.60547,-1.3789 l 3.80078,-3.79688 c 0.34375,-0.35156 0.86329,-0.60547 1.38282,-0.60547 z m 0,0"
       id="path870" />
    <path
       style="fill:#00599e;fill-opacity:1;fill-rule:nonzero;stroke:none"
       d="m 247.82031,183.68359 c -0.51953,0 -1.04297,-0.17578 -1.38672,-0.60547 l -3.79687,-3.79687 c -0.4375,-0.34375 -0.60547,-0.86328 -0.60547,-1.38281 v -55.44141 h 11.74219 v 49.48438 h 25.5625 v 11.74218 z m 0,0"
       id="path872" />
    <path
       style="fill:#00599e;fill-opacity:1;fill-rule:nonzero;stroke:none"
       d="m 342.40234,122.45703 v 61.22656 h -11.74609 v -33.85156 l -9.58594,20.03516 c -0.34375,0.6875 -1.03125,1.125 -1.72656,1.125 h -6.90625 c -0.78125,0 -1.46875,-0.4375 -1.81641,-1.125 l -9.58203,-20.03516 v 33.85156 h -11.74609 v -61.22656 h 11.74609 l 14.85156,31.08594 14.76563,-31.08594 z m 0,0"
       id="path874" />
    <path
       style="fill:#00599e;fill-opacity:1;fill-rule:nonzero;stroke:none"
       d="m 387.51953,147.23828 v -24.78125 h 11.75 v 61.22656 h -11.75 v -24.69531 h -20.98437 v 24.69531 h -11.74219 v -61.22656 h 11.74219 v 24.78125 z m 0,0"
       id="path876" />
    <path
       style="fill:#00599e;fill-opacity:1;fill-rule:nonzero;stroke:none"
       d="m 446.45312,125.39063 6.13282,6.04687 c 1.8164,1.8125 2.84765,4.31641 2.84765,6.90625 v 29.44922 c 0,2.59375 -1.03125,5.09765 -2.84765,6.91406 l -6.13282,6.12891 c -1.8125,1.8164 -4.3164,2.85156 -6.91015,2.85156 h -13.72656 c -2.59766,0 -5.1836,-0.95313 -6.9961,-2.85156 l -6.05078,-6.12891 c -1.8125,-1.81641 -2.84766,-4.32031 -2.84766,-6.91406 v -29.44922 c 0,-2.58984 1.03516,-5.09375 2.84766,-6.90625 l 6.05078,-6.04687 c 1.89844,-1.90235 4.39844,-2.9336 6.9961,-2.9336 h 13.72656 c 2.59375,0 5.01172,1.11719 6.91015,2.9336 z m -2.76171,40.84765 v -26.25 c 0,-0.51953 -0.26172,-1.04297 -0.60547,-1.38672 l -3.71485,-3.79687 c -0.43359,-0.34375 -0.94922,-0.60547 -1.46875,-0.60547 h -10.53125 c -0.52343,0 -0.94922,0.26172 -1.38672,0.60547 l -3.71093,3.79687 c -0.42969,0.34766 -0.60547,0.86719 -0.60547,1.38672 v 26.25 c 0,0.51953 0.17578,0.94922 0.60547,1.38672 l 3.71093,3.71094 c 0.4375,0.42968 0.86329,0.60547 1.38672,0.60547 h 10.53125 c 0.52344,0 1.03516,-0.17579 1.46875,-0.60547 l 3.71485,-3.71094 c 0.34375,-0.4375 0.60547,-0.86719 0.60547,-1.38672 z m 0,0"
       id="path878" />
    <path
       style="fill:#00599e;fill-opacity:1;fill-rule:nonzero;stroke:none"
       d="m 471.61328,183.68359 c -0.51953,0 -1.03906,-0.17578 -1.38281,-0.60547 l -3.79688,-3.79687 c -0.4375,-0.34375 -0.60547,-0.86328 -0.60547,-1.38281 v -55.44141 h 11.74219 v 49.48438 h 25.5625 v 11.74218 z m 0,0"
       id="path880" />
    <path
       style="fill:#00599e;fill-opacity:1;fill-rule:nonzero;stroke:none"
       d="m 502.28906,134.19922 v -11.74219 h 44.21875 v 11.74219 h -16.23828 v 49.48437 h -11.74219 v -49.48437 z m 0,0"
       id="path882" />
    <path
       style="fill:#00599e;fill-opacity:1;fill-rule:nonzero;stroke:none"
       d="m 591.96875,123.0625 3.79687,3.79688 c 0.34375,0.34375 0.60547,0.86328 0.60547,1.3789 v 3.02344 l -25.73828,40.67969 h 25.39453 v 11.74609 h -35.0625 c -0.51953,0 -1.03906,-0.17969 -1.38672,-0.60547 l -3.79687,-3.80078 c -0.34375,-0.34375 -0.60547,-0.86328 -0.60547,-1.38281 v -3.53907 l 25.39453,-40.16015 h -25.73828 v -11.74219 h 35.75391 c 0.51953,0 1.03906,0.25391 1.38281,0.60547 z m 0,0"
       id="path884" />
  </g>
</svg>
